PathFileType	3	(X/Y/Z)	D:\VICON_DB\Goncalves\Pilot01\09-03-2026\bw_sq_02.trc
DataRate	CameraRate	NumFrames	NumMarkers	Units	OrigDataRate	OrigDataStartFrame	OrigNumFrames
200.0	200.0	11	34	mm	200.0	419	670	
Frame#	Time	LASI			RASI			LPSI			RPSI			LTHI			LTHAP			LTHAD			LKNE			LKNM			LTIB			LTIAP			LTIAD			LANK			LMED			LHEE			LTOE			LFMH			LSMH			LVMH			RTHI			RTHAP			RTHAD			RKNE			RKNM			RTIB			RTIAP			RTIAD			RANK			RMED			RHEE			RTOE			RFMH			RSMH			RVMH			
		X1	Y1	Z1	X2	Y2	Z2	X3	Y3	Z3	X4	Y4	Z4	X5	Y5	Z5	X6	Y6	Z6	X7	Y7	Z7	X8	Y8	Z8	X9	Y9	Z9	X10	Y10	Z10	X11	Y11	Z11	X12	Y12	Z12	X13	Y13	Z13	X14	Y14	Z14	X15	Y15	Z15	X16	Y16	Z16	X17	Y17	Z17	X18	Y18	Z18	X19	Y19	Z19	X20	Y20	Z20	X21	Y21	Z21	X22	Y22	Z22	X23	Y23	Z23	X24	Y24	Z24	X25	Y25	Z25	X26	Y26	Z26	X27	Y27	Z27	X28	Y28	Z28	X29	Y29	Z29	X30	Y30	Z30	X31	Y31	Z31	X32	Y32	Z32	X33	Y33	Z33	X34	Y34	Z34	
419	2.09	287.2731	607.67902	-1088.5042	288.1702	619.5119	-1349.6146				458.6058	718.95935	-1247.415	244.1102	577.276	-1038.0325	299.47913	596.27301	-1031.8492	218.49081	516.39722	-994.00146	102.90055	404.35007	-980.06818				165.5656	234.33723	-981.65045	68.124443	284.36377	-1026.0779	141.31711	197.57797	-1016.6577	276.98813	65.675156	-1032.5911				319.5824	70.974411	-1085.5229	200.20143	70.09697	-1050.6312	146.61127	45.004875	-1075.8586				163.82904	26.473713	-995.95294	201.62091	507.68112	-1404.5023	271.20447	598.49817	-1381.1049	200.56877	570.67688	-1355.3188	105.00445	409.42929	-1386.6073				134.20316	238.25041	-1387.0615	70.895042	271.21954	-1335.4166	122.35201	204.17973	-1330.2477	286.22247	61.132351	-1352.8337				323.33292	64.662697	-1308.0315	199.3744	67.192825	-1332.8014	150.6595	48.836948	-1310.4392				165.57829	20.985209	-1383.0635
420	2.095	286.61041	610.77167	-1088.5698	287.51932	622.56433	-1349.5114				457.91605	722.15991	-1247.411	243.1879	578.96777	-1037.8711	298.58533	598.39093	-1031.844	218.03091	517.83118	-993.95636	103.27273	404.88818	-980.20984				165.90483	234.60536	-981.6712	68.596565	284.74548	-1026.1187	141.58159	197.84399	-1016.6272	277.02896	65.673882	-1032.5378				319.61899	70.93483	-1085.4281	200.25665	70.105156	-1050.5625	146.6667	45.012955	-1075.8496				163.80978	26.457052	-995.94421	201.2803	509.09604	-1404.6343	270.31375	600.5769	-1381.1827	199.67574	572.10651	-1355.5621	105.40257	410.10745	-1386.7152				134.61694	238.53677	-1387.2057	71.382133	271.62723	-1335.6208	122.6627	204.48132	-1330.4072	286.24878	61.12685	-1352.8966				323.35922	64.6511	-1308.074	199.38068	67.215088	-1332.8435	150.65833	48.842087	-1310.4758				165.53773	20.933182	-1383.1295
421	2.1	285.92615	613.91748	-1088.6416	286.84076	625.66345	-1349.4089				457.20877	725.38361	-1247.4042	242.25243	580.66638	-1037.7002	297.67499	600.52515	-1031.8301	217.56766	519.27094	-993.90692	103.65563	405.43555	-980.35144				166.2543	234.88048	-981.68994	69.084351	285.13998	-1026.1572	141.85252	198.11734	-1016.5922	277.06985	65.673027	-1032.4832				319.65051	70.892174	-1085.3284	200.31281	70.113571	-1050.491	146.72185	45.020657	-1075.8379				163.78836	26.434902	-995.93292	200.93498	510.52588	-1404.775	269.40042	602.67175	-1381.2646	198.77223	573.54346	-1355.813	105.80919	410.79477	-1386.8328				135.03854	238.82709	-1387.3575	71.878181	272.04153	-1335.8329	122.98011	204.78844	-1330.5713	286.27679	61.122181	-1352.9572				323.38559	64.639343	-1308.114	199.38437	67.240211	-1332.8881	150.65657	48.849201	-1310.5137				165.50012	20.882149	-1383.1953
422	2.105	285.22119	617.11157	-1088.7181	286.13342	628.80841	-1349.3075				456.48376	728.62823	-1247.3943	241.30402	582.37177	-1037.5201	296.74768	602.67548	-1031.8077	217.10081	520.7171	-993.85382	104.04936	405.9928	-980.49396				166.6149	235.16377	-981.70758	69.588951	285.54819	-1026.1941	142.13008	198.39871	-1016.5523	277.11084	65.672691	-1032.4272				319.67654	70.846214	-1085.2234	200.36967	70.121948	-1050.417	146.77652	45.027756	-1075.8231				163.76456	26.406124	-995.91882	200.58484	511.96957	-1404.9244	268.46381	604.78082	-1381.3507	197.85863	574.98608	-1356.0715	106.22478	411.48962	-1386.9592				135.46872	239.12187	-1387.5173	72.382927	272.46237	-1336.0527	123.30435	205.10117	-1330.7402	286.30695	61.118362	-1353.0148				323.41199	64.627136	-1308.1516	199.386	67.267342	-1332.9343	150.65437	48.858086	-1310.5527				165.46675	20.831911	-1383.2595
423	2.11	284.49634	620.34924	-1088.7981	285.39566	631.99829	-1349.2079				455.74103	731.89258	-1247.3815	240.34296	584.08411	-1037.3323	295.80283	604.84222	-1031.7776	216.63031	522.16992	-993.79791	104.45423	406.56067	-980.63824				166.98787	235.45644	-981.72491	70.111282	285.97076	-1026.2297	142.41458	198.68883	-1016.5078	277.15198	65.673073	-1032.3702				319.69711	70.796875	-1085.1135	200.42686	70.130135	-1050.3402	146.83051	45.034134	-1075.8048				163.73834	26.36981	-995.90198	200.23	513.42566	-1405.0824	267.50348	606.90179	-1381.4409	196.93524	576.43274	-1356.3376	106.64974	412.19089	-1387.0939				135.90846	239.42149	-1387.6847	72.896156	272.88974	-1336.2815	123.6355	205.41949	-1330.9141	286.33963	61.115356	-1353.0688				323.43835	64.614273	-1308.1864	199.386	67.295799	-1332.9822	150.65196	48.868484	-1310.5929				165.43866	20.782173	-1383.3214
424	2.115	283.75235	623.62573	-1088.8798	284.62576	635.2323	-1349.1101				454.98056	735.17596	-1247.3655	239.36969	585.80347	-1037.1376	294.83975	607.0257	-1031.7407	216.15625	523.63025	-993.73993	104.87079	407.13956	-980.78534				167.37439	235.75948	-981.74274	70.651978	286.40814	-1026.2643	142.70654	198.98849	-1016.4586	277.19342	65.67453	-1032.3123				319.71252	70.744301	-1084.9995	200.48401	70.137932	-1050.2612	146.88373	45.039757	-1075.7832				163.70993	26.325342	-995.88263	199.87064	514.89264	-1405.2487	266.51898	609.03253	-1381.5353	196.00223	577.8819	-1356.6111	107.0844	412.89746	-1387.2361				136.3588	239.72629	-1387.8596	73.417747	273.32361	-1336.5197	123.97373	205.7435	-1331.0933	286.37509	61.11311	-1353.1191				323.46457	64.600647	-1308.219	199.38484	67.325035	-1333.0317	150.64958	48.880123	-1310.6343				165.41655	20.732573	-1383.3796
425	2.12	282.98978	626.93671	-1088.9619	283.8223	638.50946	-1349.015				454.20206	738.47723	-1247.3467	238.38474	587.53015	-1036.9371	293.85773	609.22601	-1031.6976	215.67903	525.09851	-993.68066	105.29979	407.73001	-980.93542				167.77573	236.07393	-981.76184	71.21151	286.86063	-1026.2982	143.00659	199.2984	-1016.4051	277.23547	65.677498	-1032.2543				319.72354	70.688972	-1084.8826	200.54063	70.145226	-1050.1805	146.93607	45.044697	-1075.7582				163.67978	26.272446	-995.86102	199.50706	516.3689	-1405.4227	265.51013	611.17065	-1381.6342	195.05977	579.33197	-1356.892	107.52907	413.60867	-1387.3846				136.82079	240.03665	-1388.0413	73.947914	273.76407	-1336.7672	124.31927	206.07332	-1331.2783	286.41342	61.11153	-1353.1655				323.49075	64.58625	-1308.2495	199.38292	67.354675	-1333.0826	150.64761	48.892765	-1310.6765				165.40092	20.682737	-1383.4342
426	2.125	282.20892	630.27826	-1089.0433	282.98413	641.82825	-1348.9224				453.40457	741.79498	-1247.3262	237.38869	589.26459	-1036.7316	292.8562	611.44324	-1031.65	215.19942	526.57507	-993.62067	105.74223	408.33221	-981.08899				168.19298	236.40044	-981.78314	71.790169	287.32819	-1026.3311	143.31546	199.61906	-1016.3474	277.27835	65.682571	-1032.1962				319.73157	70.63176	-1084.7645	200.59616	70.151924	-1050.0989	146.98746	45.049088	-1075.7299				163.64862	26.211206	-995.83771	199.13976	517.85242	-1405.6033	264.47684	613.31415	-1381.7375	194.1078	580.7818	-1357.1797	107.98406	414.32379	-1387.5385				137.29543	240.35323	-1388.2292	74.487137	274.21146	-1337.0237	124.6724	206.40907	-1331.4695	286.45474	61.110546	-1353.2084				323.51678	64.571144	-1308.2787	199.38063	67.384438	-1333.1353	150.64642	48.906235	-1310.7201				165.39182	20.632397	-1383.4844
427	2.13	281.40982	633.64673	-1089.1228	282.11072	645.18665	-1348.8333				452.58676	745.1275	-1247.3054	236.38228	591.0072	-1036.522	291.83524	613.67706	-1031.5985	214.71832	528.06061	-993.56067	106.1992	408.94644	-981.24579				168.62712	236.73956	-981.80725	72.388077	287.8107	-1026.363	143.63388	199.95096	-1016.286	277.32239	65.690239	-1032.1389				319.73798	70.573738	-1084.6473	200.65005	70.157997	-1050.0171	147.03783	45.053123	-1075.698				163.61742	26.142078	-995.81354	198.76907	519.34131	-1405.7894	263.41898	615.4613	-1381.8456	193.14638	582.23065	-1357.4735	108.44968	415.04236	-1387.6953				137.78369	240.67699	-1388.4221	75.036034	274.66605	-1337.2887	125.03338	206.75102	-1331.6666	286.49887	61.1101	-1353.2485				323.54285	64.555443	-1308.3068	199.37839	67.414024	-1333.189	150.64638	48.920406	-1310.7643				165.38907	20.581394	-1383.53
428	2.135	280.59225	637.03943	-1089.1993	281.20206	648.5827	-1348.7477				451.74738	748.47321	-1247.2858	235.36629	592.75879	-1036.3087	290.7952	615.92712	-1031.5438	214.237	529.55536	-993.50079	106.67197	409.57281	-981.40582				169.07886	237.09146	-981.83484	73.005127	288.30798	-1026.3937	143.96254	200.29428	-1016.2214	277.36771	65.701004	-1032.0829				319.74435	70.516029	-1084.5328	200.70197	70.163628	-1049.9358	147.08716	45.05706	-1075.6635				163.58748	26.065851	-995.78925	198.39496	520.8338	-1405.9785	262.33649	617.61053	-1381.9584	192.17554	583.67767	-1357.7725	108.92609	415.76434	-1387.8533				138.28642	241.00916	-1388.6188	75.595367	275.12817	-1337.5607	125.40247	207.09944	-1331.8689	286.54568	61.110195	-1353.2864				323.56888	64.539375	-1308.3346	199.37651	67.443138	-1333.2445	150.64775	48.9352	-1310.8094				165.39221	20.529617	-1383.5713
429	2.14	279.75562	640.45404	-1089.2721	280.25845	652.01373	-1348.6665				450.88547	751.83185	-1247.2684	234.34161	594.51947	-1036.0929	289.73706	618.1925	-1031.4865	213.75688	531.05957	-993.44135	107.16186	410.21124	-981.56848				169.54857	237.45618	-981.86639	73.64093	288.81961	-1026.4224	144.302	200.64902	-1016.1541	277.41458	65.715164	-1032.0288				319.75208	70.459579	-1084.4233	200.75185	70.169243	-1049.8557	147.13542	45.061153	-1075.6267				163.56024	25.983591	-995.76593	198.01701	522.32861	-1406.1694	261.22952	619.76038	-1382.0754	191.19536	585.12244	-1358.0754	109.41333	416.48959	-1388.0099				138.80415	241.35117	-1388.8169	76.165863	275.59845	-1337.8374	125.77987	207.45456	-1332.0754	286.59503	61.110886	-1353.323				323.59503	64.523163	-1308.3625	199.37534	67.471466	-1333.3015	150.65077	48.95052	-1310.8551				165.40062	20.47694	-1383.6083
